<svg version="1.1" viewBox="0.0 0.0 824.1181102362204 377.18635170603676" fill="none" stroke="none" stroke-linecap="square" stroke-miterlimit="10" xmlns:xlink="http://www.w3.org/1999/xlink" xmlns="http://www.w3.org/2000/svg"><clipPath id="p.0"><path d="m0 0l824.1181 0l0 377.18634l-824.1181 0l0 -377.18634z" clip-rule="nonzero"/></clipPath><g clip-path="url(#p.0)"><path fill="#000000" fill-opacity="0.0" d="m0 0l824.1181 0l0 377.18634l-824.1181 0z" fill-rule="evenodd"/><path fill="#ffffff" d="m1.8781031 49.209805l0 0c0 -26.088848 21.14919 -47.238037 47.23804 -47.238037l726.6893 0c12.52832 0 24.543457 4.9768505 33.402344 13.835701c8.858826 8.858851 13.835693 20.874031 13.835693 33.402336l0 279.03574c0 26.088837 -21.14917 47.238037 -47.238037 47.238037l-726.6893 0c-26.088848 0 -47.23804 -21.1492 -47.23804 -47.238037z" fill-rule="evenodd"/><path fill="#666666" d="m30.878103 52.529583l0 0c0 -7.673321 6.2204533 -13.893776 13.893774 -13.893776l166.76363 0c3.6848602 0 7.218796 1.4638062 9.824387 4.069393c2.6055908 2.605587 4.069397 6.1395264 4.069397 9.824383l0 82.07071c0 7.6733246 -6.220459 13.893784 -13.893784 13.893784l-166.76363 0c-7.673321 0 -13.893774 -6.220459 -13.893774 -13.893784z" fill-rule="evenodd"/><path fill="#ffffff" d="m82.72923 89.48494l-0.90625 -2.390625l-5.703125 0l-0.921875 2.390625l-2.484375 0l4.890625 -12.4375l2.71875 0l4.890625 12.4375l-2.484375 0zm-3.765625 -10.25l-2.234375 5.9375l4.46875 0l-2.234375 -5.9375zm12.415039 10.46875q-1.796875 0 -2.890625 -1.46875l0 4.6875l-1.96875 0l0 -12.453125l1.96875 0l0 1.234375q1.078125 -1.453125 2.890625 -1.453125q1.796875 0 2.890625 1.296875q1.09375 1.28125 1.09375 3.421875q0 2.171875 -1.109375 3.453125q-1.09375 1.28125 -2.875 1.28125zm-0.578125 -1.734375q1.171875 0 1.84375 -0.828125q0.6875 -0.84375 0.6875 -2.171875q0 -1.359375 -0.71875 -2.171875q-0.71875 -0.8125 -1.8125 -0.8125q-0.671875 0 -1.3125 0.34375q-0.640625 0.328125 -1.0 0.875l0 3.5625q0.359375 0.515625 0.984375 0.859375q0.625 0.34375 1.328125 0.34375zm11.361435 1.734375q-1.796875 0 -2.890625 -1.46875l0 4.6875l-1.96875 0l0 -12.453125l1.96875 0l0 1.234375q1.078125 -1.453125 2.890625 -1.453125q1.796875 0 2.890625 1.296875q1.09375 1.28125 1.09375 3.421875q0 2.171875 -1.109375 3.453125q-1.09375 1.28125 -2.875 1.28125zm-0.578125 -1.734375q1.171875 0 1.84375 -0.828125q0.6875 -0.84375 0.6875 -2.171875q0 -1.359375 -0.71875 -2.171875q-0.71875 -0.8125 -1.8125 -0.8125q-0.671875 0 -1.3125 0.34375q-0.640625 0.328125 -1.0 0.875l0 3.5625q0.359375 0.515625 0.984375 0.859375q0.625 0.34375 1.328125 0.34375zm6.50206 1.515625l0 -12.4375l1.96875 0l0 12.4375l-1.96875 0zm5.464905 -10.109375q-0.484375 0 -0.84375 -0.359375q-0.359375 -0.359375 -0.359375 -0.859375q0 -0.5 0.359375 -0.84375q0.359375 -0.359375 0.84375 -0.359375q0.515625 0 0.859375 0.359375q0.359375 0.34375 0.359375 0.84375q0 0.5 -0.359375 0.859375q-0.34375 0.359375 -0.859375 0.359375zm-0.96875 10.109375l0 -9.015625l1.96875 0l0 9.015625l-1.96875 0zm8.60553 0.21875q-2.046875 0 -3.359375 -1.34375q-1.3125 -1.359375 -1.3125 -3.390625q0 -2.03125 1.3125 -3.375q1.3125 -1.34375 3.359375 -1.34375q2.25 0 3.453125 1.609375l-1.296875 1.1875q-0.765625 -1.0625 -2.0625 -1.0625q-1.21875 0 -1.96875 0.828125q-0.75 0.828125 -0.75 2.15625q0 1.3125 0.734375 2.15625q0.75 0.84375 1.984375 0.84375q1.28125 0 2.0625 -1.0625l1.296875 1.203125q-1.203125 1.59375 -3.453125 1.59375zm10.662781 -0.21875l0 -0.96875q-1.03125 1.1875 -2.90625 1.1875q-1.328125 0 -2.234375 -0.828125q-0.890625 -0.84375 -0.890625 -2.15625q0 -1.3125 0.859375 -2.109375q0.875 -0.8125 2.265625 -0.8125q1.9375 0 2.90625 1.15625l0 -1.34375q0 -0.78125 -0.578125 -1.234375q-0.578125 -0.453125 -1.515625 -0.453125q-1.515625 0 -2.671875 1.140625l-0.8125 -1.359375q1.53125 -1.453125 3.796875 -1.453125q1.8125 0 2.78125 0.859375q0.96875 0.84375 0.96875 2.40625l0 5.96875l-1.96875 0zm-2.140625 -1.125q1.46875 0 2.140625 -0.921875l0 -1.375q-0.671875 -0.921875 -2.140625 -0.921875q-0.84375 0 -1.390625 0.4375q-0.53125 0.4375 -0.53125 1.1875q0 0.71875 0.53125 1.15625q0.546875 0.4375 1.390625 0.4375zm9.343506 1.34375q-1.140625 0 -1.734375 -0.59375q-0.578125 -0.59375 -0.578125 -1.71875l0 -5.203125l-1.484375 0l0 -1.71875l1.484375 0l0 -2.453125l1.96875 0l0 2.453125l1.828125 0l0 1.71875l-1.828125 0l0 4.71875q0 0.46875 0.203125 0.765625q0.21875 0.296875 0.65625 0.296875q0.59375 0 0.875 -0.3125l0.46875 1.46875q-0.578125 0.578125 -1.859375 0.578125zm4.2169647 -10.328125q-0.484375 0 -0.84375 -0.359375q-0.359375 -0.359375 -0.359375 -0.859375q0 -0.5 0.359375 -0.84375q0.359375 -0.359375 0.84375 -0.359375q0.515625 0 0.859375 0.359375q0.359375 0.34375 0.359375 0.84375q0 0.5 -0.359375 0.859375q-0.34375 0.359375 -0.859375 0.359375zm-0.96875 10.109375l0 -9.015625l1.96875 0l0 9.015625l-1.96875 0zm8.558655 0.21875q-2.0 0 -3.3125 -1.3125q-1.3125 -1.328125 -1.3125 -3.421875q0 -2.0625 1.296875 -3.390625q1.296875 -1.328125 3.328125 -1.328125q2.046875 0 3.34375 1.328125q1.3125 1.328125 1.3125 3.390625q0 2.09375 -1.3125 3.421875q-1.296875 1.3125 -3.34375 1.3125zm0 -1.734375q1.171875 0 1.890625 -0.828125q0.734375 -0.84375 0.734375 -2.171875q0 -1.328125 -0.734375 -2.15625q-0.71875 -0.828125 -1.890625 -0.828125q-1.125 0 -1.859375 0.828125q-0.71875 0.8125 -0.71875 2.15625q0 1.34375 0.703125 2.171875q0.71875 0.828125 1.875 0.828125zm12.705658 1.515625l0 -5.640625q0 -1.859375 -1.796875 -1.859375q-0.765625 0 -1.375 0.375q-0.609375 0.375 -0.9375 0.84375l0 6.28125l-1.96875 0l0 -9.015625l1.96875 0l0 1.234375q0.546875 -0.65625 1.390625 -1.046875q0.859375 -0.40625 1.78125 -0.40625q2.90625 0 2.90625 2.890625l0 6.34375l-1.96875 0zm17.169632 0l-1.09375 -1.078125q-1.546875 1.296875 -3.5 1.296875q-1.796875 0 -2.90625 -0.9375q-1.09375 -0.953125 -1.09375 -2.609375q0 -1.109375 0.625 -2.0q0.640625 -0.890625 2.078125 -1.625q-0.875 -1.59375 -0.875 -2.734375q0 -1.28125 0.96875 -2.109375q0.96875 -0.828125 2.40625 -0.828125q1.359375 0 2.21875 0.703125q0.859375 0.703125 0.859375 1.84375q0 0.75 -0.328125 1.328125q-0.3125 0.5625 -0.875 1.015625q-0.546875 0.453125 -1.921875 1.109375l1.234375 1.53125l1.234375 1.4375q0.828125 -1.3125 1.234375 -2.59375l1.59375 0.734375q-0.84375 1.875 -1.734375 3.078125q0.921875 0.96875 2.4375 2.4375l-2.5625 0zm-4.34375 -1.34375q1.09375 0 2.140625 -0.875q-1.90625 -2.078125 -2.90625 -3.515625q-1.40625 0.9375 -1.40625 2.25q0 0.921875 0.609375 1.53125q0.609375 0.609375 1.5625 0.609375zm-0.453125 -8.296875q0 0.8125 0.625 1.875q1.125 -0.515625 1.625 -1.046875q0.5 -0.546875 0.5 -1.171875q0 -0.578125 -0.359375 -0.875q-0.359375 -0.3125 -0.890625 -0.3125q-0.640625 0 -1.078125 0.4375q-0.421875 0.421875 -0.421875 1.09375z" fill-rule="nonzero"/><path fill="#ffffff" d="m67.48716 111.48494l0 -12.4375l6.109375 0q1.609375 0 2.578125 0.890625q0.96875 0.875 0.96875 2.28125q0 1.078125 -0.59375 1.859375q-0.59375 0.78125 -1.5625 0.984375q1.0 0.15625 1.703125 1.046875q0.703125 0.875 0.703125 2.015625q0 1.5625 -1.0 2.46875q-0.984375 0.890625 -2.625 0.890625l-6.28125 0zm5.671875 -7.296875q0.828125 0 1.28125 -0.4375q0.46875 -0.453125 0.46875 -1.171875q0 -0.703125 -0.46875 -1.15625q-0.453125 -0.453125 -1.28125 -0.453125l-3.5 0l0 3.21875l3.5 0zm0.09375 5.375q0.890625 0 1.390625 -0.453125q0.515625 -0.453125 0.515625 -1.28125q0 -0.703125 -0.484375 -1.203125q-0.46875 -0.515625 -1.421875 -0.515625l-3.59375 0l0 3.453125l3.59375 0zm12.339249 1.921875l0 -1.1875q-0.484375 0.53125 -1.3125 0.96875q-0.8125 0.4375 -1.875 0.4375q-2.890625 0 -2.890625 -2.84375l0 -6.390625l1.96875 0l0 5.671875q0 1.828125 1.796875 1.828125q0.75 0 1.359375 -0.34375q0.609375 -0.359375 0.953125 -0.828125l0 -6.328125l1.96875 0l0 9.015625l-1.96875 0zm7.5780945 0.21875q-2.421875 0 -3.859375 -1.390625l0.890625 -1.421875q0.609375 0.59375 1.453125 0.9375q0.84375 0.328125 1.609375 0.328125q0.890625 0 1.328125 -0.328125q0.453125 -0.34375 0.453125 -0.875q0 -0.484375 -0.546875 -0.75q-0.546875 -0.265625 -2.1875 -0.59375q-2.71875 -0.578125 -2.71875 -2.625q0 -1.203125 0.96875 -1.96875q0.984375 -0.765625 2.578125 -0.765625q2.0625 0 3.5 1.265625l-0.8125 1.390625q-0.421875 -0.46875 -1.125 -0.78125q-0.703125 -0.3125 -1.546875 -0.3125q-0.78125 0 -1.234375 0.3125q-0.4375 0.3125 -0.4375 0.796875q0 0.421875 0.484375 0.640625q0.484375 0.21875 2.234375 0.609375q2.71875 0.609375 2.71875 2.734375q0 1.296875 -1.03125 2.046875q-1.015625 0.75 -2.71875 0.75zm6.6963806 -10.328125q-0.484375 0 -0.84375 -0.359375q-0.359375 -0.359375 -0.359375 -0.859375q0 -0.5 0.359375 -0.84375q0.359375 -0.359375 0.84375 -0.359375q0.515625 0 0.859375 0.359375q0.359375 0.34375 0.359375 0.84375q0 0.5 -0.359375 0.859375q-0.34375 0.359375 -0.859375 0.359375zm-0.96875 10.109375l0 -9.015625l1.96875 0l0 9.015625l-1.96875 0zm10.57428 0l0 -5.640625q0 -1.859375 -1.796875 -1.859375q-0.765625 0 -1.375 0.375q-0.609375 0.375 -0.9375 0.84375l0 6.28125l-1.96875 0l0 -9.015625l1.96875 0l0 1.234375q0.546875 -0.65625 1.390625 -1.046875q0.859375 -0.40625 1.78125 -0.40625q2.90625 0 2.90625 2.890625l0 6.34375l-1.96875 0zm8.6562195 0.21875q-2.078125 0 -3.40625 -1.3125q-1.3125 -1.328125 -1.3125 -3.421875q0 -2.03125 1.3125 -3.375q1.3125 -1.34375 3.265625 -1.34375q2.015625 0 3.21875 1.390625q1.21875 1.390625 1.21875 3.515625l0 0.46875l-6.953125 0q0.125 1.109375 0.890625 1.796875q0.78125 0.6875 1.984375 0.6875q0.640625 0 1.34375 -0.25q0.71875 -0.265625 1.203125 -0.75l0.890625 1.296875q-1.328125 1.296875 -3.65625 1.296875zm2.390625 -5.46875q-0.046875 -1.0625 -0.75 -1.71875q-0.703125 -0.65625 -1.78125 -0.65625q-1.0625 0 -1.75 0.65625q-0.671875 0.65625 -0.78125 1.71875l5.0625 0zm6.9227905 5.46875q-2.421875 0 -3.859375 -1.390625l0.890625 -1.421875q0.609375 0.59375 1.453125 0.9375q0.84375 0.328125 1.609375 0.328125q0.8906326 0 1.3281326 -0.328125q0.453125 -0.34375 0.453125 -0.875q0 -0.484375 -0.546875 -0.75q-0.546875 -0.265625 -2.1875076 -0.59375q-2.71875 -0.578125 -2.71875 -2.625q0 -1.203125 0.96875 -1.96875q0.984375 -0.765625 2.578125 -0.765625q2.0625076 0 3.5000076 1.265625l-0.8125 1.390625q-0.421875 -0.46875 -1.125 -0.78125q-0.703125 -0.3125 -1.5468826 -0.3125q-0.78125 0 -1.234375 0.3125q-0.4375 0.3125 -0.4375 0.796875q0 0.421875 0.484375 0.640625q0.484375 0.21875 2.2343826 0.609375q2.71875 0.609375 2.71875 2.734375q0 1.296875 -1.03125 2.046875q-1.015625 0.75 -2.7187576 0.75zm8.805763 0q-2.421875 0 -3.859375 -1.390625l0.890625 -1.421875q0.609375 0.59375 1.453125 0.9375q0.84375 0.328125 1.609375 0.328125q0.890625 0 1.328125 -0.328125q0.453125 -0.34375 0.453125 -0.875q0 -0.484375 -0.546875 -0.75q-0.546875 -0.265625 -2.1875 -0.59375q-2.71875 -0.578125 -2.71875 -2.625q0 -1.203125 0.96875 -1.96875q0.984375 -0.765625 2.578125 -0.765625q2.0625 0 3.5 1.265625l-0.8125 1.390625q-0.421875 -0.46875 -1.125 -0.78125q-0.703125 -0.3125 -1.546875 -0.3125q-0.78125 0 -1.234375 0.3125q-0.4375 0.3125 -0.4375 0.796875q0 0.421875 0.484375 0.640625q0.484375 0.21875 2.234375 0.609375q2.71875 0.609375 2.71875 2.734375q0 1.296875 -1.03125 2.046875q-1.015625 0.75 -2.71875 0.75zm10.584793 -0.21875l0 -12.4375l2.171875 0l0 10.515625l5.5 0l0 1.921875l-7.671875 0zm13.36528 0.21875q-2.0 0 -3.3125 -1.3125q-1.3125 -1.328125 -1.3125 -3.421875q0 -2.0625 1.296875 -3.390625q1.296875 -1.328125 3.328125 -1.328125q2.046875 0 3.34375 1.328125q1.3125 1.328125 1.3125 3.390625q0 2.09375 -1.3125 3.421875q-1.296875 1.3125 -3.34375 1.3125zm0 -1.734375q1.171875 0 1.890625 -0.828125q0.734375 -0.84375 0.734375 -2.171875q0 -1.328125 -0.734375 -2.15625q-0.71875 -0.828125 -1.890625 -0.828125q-1.125 0 -1.859375 0.828125q-0.71875 0.8125 -0.71875 2.15625q0 1.34375 0.703125 2.171875q0.71875 0.828125 1.875 0.828125zm10.283783 5.171875q-1.15625 0 -2.046875 -0.296875q-0.875 -0.28125 -1.71875 -1.046875l0.921875 -1.421875q0.984375 1.15625 2.84375 1.15625q1.25 0 1.953125 -0.65625q0.71875 -0.640625 0.71875 -1.78125l0 -1.078125q-1.15625 1.484375 -2.890625 1.484375q-1.8125 0 -2.90625 -1.234375q-1.09375 -1.25 -1.09375 -3.390625q0 -2.125 1.109375 -3.375q1.109375 -1.25 2.890625 -1.25q1.765625 0 2.890625 1.46875l0 -1.25l1.953125 0l0 8.546875q0 1.984375 -1.203125 3.046875q-1.1875 1.078125 -3.421875 1.078125zm0.359375 -5.375q0.6875 0 1.328125 -0.34375q0.640625 -0.359375 0.984375 -0.859375l0 -3.359375q-0.375 -0.53125 -1.0 -0.875q-0.625 -0.34375 -1.3125 -0.34375q-1.171875 0 -1.859375 0.796875q-0.671875 0.796875 -0.671875 2.09375q0 1.3125 0.671875 2.109375q0.6875 0.78125 1.859375 0.78125zm7.7737427 -8.390625q-0.484375 0 -0.84375 -0.359375q-0.359375 -0.359375 -0.359375 -0.859375q0 -0.5 0.359375 -0.84375q0.359375 -0.359375 0.84375 -0.359375q0.515625 0 0.859375 0.359375q0.359375 0.34375 0.359375 0.84375q0 0.5 -0.359375 0.859375q-0.34375 0.359375 -0.859375 0.359375zm-0.96875 10.109375l0 -9.015625l1.96875 0l0 9.015625l-1.96875 0zm8.60553 0.21875q-2.046875 0 -3.359375 -1.34375q-1.3125 -1.359375 -1.3125 -3.390625q0 -2.03125 1.3125 -3.375q1.3125 -1.34375 3.359375 -1.34375q2.25 0 3.453125 1.609375l-1.296875 1.1875q-0.765625 -1.0625 -2.0625 -1.0625q-1.21875 0 -1.96875 0.828125q-0.75 0.828125 -0.75 2.15625q0 1.3125 0.734375 2.15625q0.75 0.84375 1.984375 0.84375q1.28125 0 2.0625 -1.0625l1.296875 1.203125q-1.203125 1.59375 -3.453125 1.59375z" fill-rule="nonzero"/><path fill="#666666" d="m357.2902 52.529583l0 0c0 -7.673321 6.2204285 -13.893776 13.893768 -13.893776l166.76361 0c3.6848755 0 7.218811 1.4638062 9.824402 4.069393c2.6055908 2.605587 4.069397 6.1395264 4.069397 9.824383l0 82.07071c0 7.6733246 -6.220459 13.893784 -13.893799 13.893784l-166.76361 0c-7.67334 0 -13.893768 -6.220459 -13.893768 -13.893784z" fill-rule="evenodd"/><path fill="#ffffff" d="m432.52335 89.48494l-4.890625 -12.4375l2.484375 0l3.765625 10.0625l3.765625 -10.0625l2.484375 0l-4.890625 12.4375l-2.71875 0zm11.951294 0.21875q-2.078125 0 -3.40625 -1.3125q-1.3125 -1.328125 -1.3125 -3.421875q0 -2.03125 1.3125 -3.375q1.3125 -1.34375 3.265625 -1.34375q2.015625 0 3.21875 1.390625q1.21875 1.390625 1.21875 3.515625l0 0.46875l-6.953125 0q0.125 1.109375 0.890625 1.796875q0.78125 0.6875 1.984375 0.6875q0.640625 0 1.34375 -0.25q0.71875 -0.265625 1.203125 -0.75l0.890625 1.296875q-1.328125 1.296875 -3.65625 1.296875zm2.390625 -5.46875q-0.046875 -1.0625 -0.75 -1.71875q-0.703125 -0.65625 -1.78125 -0.65625q-1.0625 0 -1.75 0.65625q-0.671875 0.65625 -0.78125 1.71875l5.0625 0zm3.8446655 5.25l0 -9.015625l1.96875 0l0 1.328125q0.5 -0.65625 1.265625 -1.09375q0.765625 -0.4375 1.65625 -0.4375l0 1.9375l-0.609375 -0.046875q-0.640625 0 -1.328125 0.359375q-0.6875 0.34375 -0.984375 0.828125l0 6.140625l-1.96875 0zm9.176849 0.21875q-1.140625 0 -1.734375 -0.59375q-0.578125 -0.59375 -0.578125 -1.71875l0 -5.203125l-1.484375 0l0 -1.71875l1.484375 0l0 -2.453125l1.96875 0l0 2.453125l1.828125 0l0 1.71875l-1.828125 0l0 4.71875q0 0.46875 0.203125 0.765625q0.21875 0.296875 0.65625 0.296875q0.59375 0 0.875 -0.3125l0.46875 1.46875q-0.578125 0.578125 -1.859375 0.578125zm7.40448 0q-2.078125 0 -3.40625 -1.3125q-1.3125 -1.328125 -1.3125 -3.421875q0 -2.03125 1.3125 -3.375q1.3125 -1.34375 3.265625 -1.34375q2.015625 0 3.21875 1.390625q1.21875 1.390625 1.21875 3.515625l0 0.46875l-6.953125 0q0.125 1.109375 0.890625 1.796875q0.78125 0.6875 1.984375 0.6875q0.640625 0 1.34375 -0.25q0.71875 -0.265625 1.203125 -0.75l0.890625 1.296875q-1.328125 1.296875 -3.65625 1.296875zm2.390625 -5.46875q-0.046875 -1.0625 -0.75 -1.71875q-0.703125 -0.65625 -1.78125 -0.65625q-1.0625 0 -1.75 0.65625q-0.671875 0.65625 -0.78125 1.71875l5.0625 0zm9.532166 5.25l-2.328125 -3.328125l-2.34375 3.328125l-2.1875 0l3.296875 -4.625l-3.109375 -4.390625l2.203125 0l2.140625 3.0625l2.125 -3.0625l2.203125 0l-3.109375 4.390625l3.3125 4.625l-2.203125 0z" fill-rule="nonzero"/><path fill="#ffffff" d="m408.92676 111.48494l0 -12.4375l8.515625 0l0 1.921875l-6.34375 0l0 3.21875l6.21875 0l0 1.921875l-6.21875 0l0 5.375l-2.171875 0zm10.422333 0l0 -9.015625l1.96875 0l0 1.328125q0.5 -0.65625 1.265625 -1.09375q0.765625 -0.4375 1.65625 -0.4375l0 1.9375l-0.609375 -0.046875q-0.640625 0 -1.328125 0.359375q-0.6875 0.34375 -0.984375 0.828125l0 6.140625l-1.96875 0zm11.973724 0l0 -0.96875q-1.03125 1.1875 -2.90625 1.1875q-1.328125 0 -2.234375 -0.828125q-0.890625 -0.84375 -0.890625 -2.15625q0 -1.3125 0.859375 -2.109375q0.875 -0.8125 2.265625 -0.8125q1.9375 0 2.90625 1.15625l0 -1.34375q0 -0.78125 -0.578125 -1.234375q-0.578125 -0.453125 -1.515625 -0.453125q-1.515625 0 -2.671875 1.140625l-0.8125 -1.359375q1.53125 -1.453125 3.796875 -1.453125q1.8125 0 2.78125 0.859375q0.96875 0.84375 0.96875 2.40625l0 5.96875l-1.96875 0zm-2.140625 -1.125q1.46875 0 2.140625 -0.921875l0 -1.375q-0.671875 -0.921875 -2.140625 -0.921875q-0.84375 0 -1.390625 0.4375q-0.53125 0.4375 -0.53125 1.1875q0 0.71875 0.53125 1.15625q0.546875 0.4375 1.390625 0.4375zm17.687256 1.125l0 -5.875q0 -1.625 -1.46875 -1.625q-0.65625 0 -1.234375 0.390625q-0.5625 0.375 -0.859375 0.796875l0 6.3125l-1.953125 0l0 -5.875q0 -1.625 -1.5 -1.625q-0.65625 0 -1.203125 0.390625q-0.546875 0.375 -0.859375 0.828125l0 6.28125l-1.96875 0l0 -9.015625l1.96875 0l0 1.234375q0.328125 -0.515625 1.1875 -0.984375q0.859375 -0.46875 1.734375 -0.46875q1.0 0 1.609375 0.453125q0.625 0.453125 0.859375 1.203125q0.421875 -0.671875 1.28125 -1.15625q0.859375 -0.5 1.765625 -0.5q2.59375 0 2.59375 2.71875l0 6.515625l-1.953125 0zm8.650024 0.21875q-2.078125 0 -3.40625 -1.3125q-1.3125 -1.328125 -1.3125 -3.421875q0 -2.03125 1.3125 -3.375q1.3125 -1.34375 3.265625 -1.34375q2.015625 0 3.21875 1.390625q1.21875 1.390625 1.21875 3.515625l0 0.46875l-6.953125 0q0.125 1.109375 0.890625 1.796875q0.78125 0.6875 1.984375 0.6875q0.640625 0 1.34375 -0.25q0.71875 -0.265625 1.203125 -0.75l0.890625 1.296875q-1.328125 1.296875 -3.65625 1.296875zm2.390625 -5.46875q-0.046875 -1.0625 -0.75 -1.71875q-0.703125 -0.65625 -1.78125 -0.65625q-1.0625 0 -1.75 0.65625q-0.671875 0.65625 -0.78125 1.71875l5.0625 0zm11.704041 5.25l-2.09375 -6.609375l-2.09375 6.609375l-2.046875 0l-2.796875 -9.015625l2.03125 0l1.90625 6.546875l2.140625 -6.546875l1.71875 0l2.140625 6.546875l1.90625 -6.546875l2.03125 0l-2.796875 9.015625l-2.046875 0zm10.2699585 0.21875q-2.0 0 -3.3125 -1.3125q-1.3125 -1.328125 -1.3125 -3.421875q0 -2.0625 1.296875 -3.390625q1.296875 -1.328125 3.328125 -1.328125q2.046875 0 3.34375 1.328125q1.3125 1.328125 1.3125 3.390625q0 2.09375 -1.3125 3.421875q-1.296875 1.3125 -3.34375 1.3125zm0 -1.734375q1.171875 0 1.890625 -0.828125q0.734375 -0.84375 0.734375 -2.171875q0 -1.328125 -0.734375 -2.15625q-0.71875 -0.828125 -1.890625 -0.828125q-1.125 0 -1.859375 0.828125q-0.71875 0.8125 -0.71875 2.15625q0 1.34375 0.703125 2.171875q0.71875 0.828125 1.875 0.828125zm6.627533 1.515625l0 -9.015625l1.96875 0l0 1.328125q0.5 -0.65625 1.265625 -1.09375q0.765625 -0.4375 1.65625 -0.4375l0 1.9375l-0.609375 -0.046875q-0.640625 0 -1.328125 0.359375q-0.6875 0.34375 -0.984375 0.828125l0 6.140625l-1.96875 0zm12.442474 0l-2.75 -3.71875l-1.25 1.296875l0 2.421875l-1.96875 0l0 -12.4375l1.96875 0l0 7.765625l3.96875 -4.34375l2.421875 0l-3.75 4.09375l3.828125 4.921875l-2.46875 0z" fill-rule="nonzero"/><path fill="#666666" d="m587.7023 52.529583l0 0c0 -7.673321 6.220459 -13.893776 13.893738 -13.893776l166.76367 0c3.6848145 0 7.21875 1.4638062 9.824341 4.069393c2.6055908 2.605587 4.069397 6.1395264 4.069397 9.824383l0 82.07071c0 7.6733246 -6.220459 13.893784 -13.893738 13.893784l-166.76367 0c-7.673279 0 -13.893738 -6.220459 -13.893738 -13.893784z" fill-rule="evenodd"/><path fill="#ffffff" d="m670.0624 89.48494l-6.5 -8.875l0 8.875l-2.171875 0l0 -12.4375l2.234375 0l6.359375 8.625l0 -8.625l2.1875 0l0 12.4375l-2.109375 0zm8.854431 0.21875q-2.078125 0 -3.40625 -1.3125q-1.3125 -1.328125 -1.3125 -3.421875q0 -2.03125 1.3125 -3.375q1.3125 -1.34375 3.265625 -1.34375q2.015625 0 3.21875 1.390625q1.21875 1.390625 1.21875 3.515625l0 0.46875l-6.953125 0q0.125 1.109375 0.890625 1.796875q0.78125 0.6875 1.984375 0.6875q0.640625 0 1.34375 -0.25q0.71875 -0.265625 1.203125 -0.75l0.890625 1.296875q-1.328125 1.296875 -3.65625 1.296875zm2.390625 -5.46875q-0.046875 -1.0625 -0.75 -1.71875q-0.703125 -0.65625 -1.78125 -0.65625q-1.0625 0 -1.75 0.65625q-0.671875 0.65625 -0.78125 1.71875l5.0625 0zm7.9071655 5.46875q-2.0 0 -3.3125 -1.3125q-1.3125 -1.328125 -1.3125 -3.421875q0 -2.0625 1.296875 -3.390625q1.296875 -1.328125 3.328125 -1.328125q2.046875 0 3.34375 1.328125q1.3125 1.328125 1.3125 3.390625q0 2.09375 -1.3125 3.421875q-1.296875 1.3125 -3.34375 1.3125zm0 -1.734375q1.171875 0 1.890625 -0.828125q0.734375 -0.84375 0.734375 -2.171875q0 -1.328125 -0.734375 -2.15625q-0.71875 -0.828125 -1.890625 -0.828125q-1.125 0 -1.859375 0.828125q-0.71875 0.8125 -0.71875 2.15625q0 1.34375 0.703125 2.171875q0.71875 0.828125 1.875 0.828125zm11.815002 1.515625l0 -2.8125l-5.9375 0l0 -1.765625l5.125 -7.859375l3.0 0l0 7.703125l1.65625 0l0 1.921875l-1.65625 0l0 2.8125l-2.1875 0zm0 -10.484375l-3.78125 5.75l3.78125 0l0 -5.75zm6.6018677 0.375q-0.484375 0 -0.84375 -0.359375q-0.359375 -0.359375 -0.359375 -0.859375q0 -0.5 0.359375 -0.84375q0.359375 -0.359375 0.84375 -0.359375q0.515625 0 0.859375 0.359375q0.359375 0.34375 0.359375 0.84375q0 0.5 -0.359375 0.859375q-0.34375 0.359375 -0.859375 0.359375zm-1.984375 13.765625q-0.796875 0 -1.234375 -0.15625q-0.4375 -0.15625 -0.90625 -0.5l0.578125 -1.453125q0.609375 0.5 1.25 0.5q1.328125 0 1.328125 -1.53125l0 -9.53125l1.96875 0l0 9.53125q0 1.46875 -0.75 2.296875q-0.75 0.84375 -2.234375 0.84375z" fill-rule="nonzero"/><path fill="#ffffff" d="m646.6894 111.48494l0 -12.4375l4.625 0q2.921875 0 4.71875 1.75q1.796875 1.75 1.796875 4.46875q0 2.734375 -1.796875 4.484375q-1.796875 1.734375 -4.71875 1.734375l-4.625 0zm4.625 -1.921875q1.953125 0 3.109375 -1.203125q1.15625 -1.21875 1.15625 -3.09375q0 -1.9375 -1.171875 -3.109375q-1.15625 -1.1875 -3.09375 -1.1875l-2.453125 0l0 8.59375l2.453125 0zm14.058472 1.921875l0 -0.96875q-1.03125 1.1875 -2.90625 1.1875q-1.328125 0 -2.234375 -0.828125q-0.890625 -0.84375 -0.890625 -2.15625q0 -1.3125 0.859375 -2.109375q0.875 -0.8125 2.265625 -0.8125q1.9375 0 2.90625 1.15625l0 -1.34375q0 -0.78125 -0.578125 -1.234375q-0.578125 -0.453125 -1.515625 -0.453125q-1.515625 0 -2.671875 1.140625l-0.8125 -1.359375q1.53125 -1.453125 3.796875 -1.453125q1.8125 0 2.78125 0.859375q0.96875 0.84375 0.96875 2.40625l0 5.96875l-1.96875 0zm-2.140625 -1.125q1.46875 0 2.140625 -0.921875l0 -1.375q-0.671875 -0.921875 -2.140625 -0.921875q-0.84375 0 -1.390625 0.4375q-0.53125 0.4375 -0.53125 1.1875q0 0.71875 0.53125 1.15625q0.546875 0.4375 1.390625 0.4375zm9.343506 1.34375q-1.140625 0 -1.734375 -0.59375q-0.578125 -0.59375 -0.578125 -1.71875l0 -5.203125l-1.484375 0l0 -1.71875l1.484375 0l0 -2.453125l1.96875 0l0 2.453125l1.828125 0l0 1.71875l-1.828125 0l0 4.71875q0 0.46875 0.203125 0.765625q0.21875 0.296875 0.65625 0.296875q0.59375 0 0.875 -0.3125l0.46875 1.46875q-0.578125 0.578125 -1.859375 0.578125zm8.748169 -0.21875l0 -0.96875q-1.03125 1.1875 -2.90625 1.1875q-1.328125 0 -2.234375 -0.828125q-0.890625 -0.84375 -0.890625 -2.15625q0 -1.3125 0.859375 -2.109375q0.875 -0.8125 2.265625 -0.8125q1.9375 0 2.90625 1.15625l0 -1.34375q0 -0.78125 -0.578125 -1.234375q-0.578125 -0.453125 -1.515625 -0.453125q-1.515625 0 -2.671875 1.140625l-0.8125 -1.359375q1.53125 -1.453125 3.796875 -1.453125q1.8125 0 2.78125 0.859375q0.96875 0.84375 0.96875 2.40625l0 5.96875l-1.96875 0zm-2.140625 -1.125q1.46875 0 2.140625 -0.921875l0 -1.375q-0.671875 -0.921875 -2.140625 -0.921875q-0.84375 0 -1.390625 0.4375q-0.53125 0.4375 -0.53125 1.1875q0 0.71875 0.53125 1.15625q0.546875 0.4375 1.390625 0.4375zm8.609131 -1.578125q0.3125 0.5 0.953125 0.84375q0.65625 0.34375 1.359375 0.34375q1.109375 0 1.828125 -0.796875q0.71875 -0.796875 0.71875 -2.1875q0 -1.34375 -0.71875 -2.171875q-0.703125 -0.828125 -1.828125 -0.828125q-0.625 0 -1.296875 0.34375q-0.65625 0.34375 -1.015625 0.890625l0 3.5625zm-1.96875 2.703125l0 -12.4375l1.96875 0l0 4.671875q1.109375 -1.46875 2.890625 -1.46875q1.75 0 2.859375 1.296875q1.125 1.296875 1.125 3.4375q0 2.171875 -1.109375 3.453125q-1.09375 1.265625 -2.875 1.265625q-1.765625 0 -2.890625 -1.453125l0 1.234375l-1.96875 0zm16.339294 0l0 -0.96875q-1.03125 1.1875 -2.90625 1.1875q-1.328125 0 -2.234375 -0.828125q-0.890625 -0.84375 -0.890625 -2.15625q0 -1.3125 0.859375 -2.109375q0.875 -0.8125 2.265625 -0.8125q1.9375 0 2.90625 1.15625l0 -1.34375q0 -0.78125 -0.578125 -1.234375q-0.578125 -0.453125 -1.515625 -0.453125q-1.515625 0 -2.671875 1.140625l-0.8125 -1.359375q1.53125 -1.453125 3.796875 -1.453125q1.8125 0 2.78125 0.859375q0.96875 0.84375 0.96875 2.40625l0 5.96875l-1.96875 0zm-2.140625 -1.125q1.46875 0 2.140625 -0.921875l0 -1.375q-0.671875 -0.921875 -2.140625 -0.921875q-0.84375 0 -1.390625 0.4375q-0.53125 0.4375 -0.53125 1.1875q0 0.71875 0.53125 1.15625q0.546875 0.4375 1.390625 0.4375zm9.718506 1.34375q-2.421875 0 -3.859375 -1.390625l0.890625 -1.421875q0.609375 0.59375 1.453125 0.9375q0.84375 0.328125 1.609375 0.328125q0.890625 0 1.328125 -0.328125q0.453125 -0.34375 0.453125 -0.875q0 -0.484375 -0.546875 -0.75q-0.546875 -0.265625 -2.1875 -0.59375q-2.71875 -0.578125 -2.71875 -2.625q0 -1.203125 0.96875 -1.96875q0.984375 -0.765625 2.578125 -0.765625q2.0625 0 3.5 1.265625l-0.8125 1.390625q-0.421875 -0.46875 -1.125 -0.78125q-0.703125 -0.3125 -1.546875 -0.3125q-0.78125 0 -1.234375 0.3125q-0.4375 0.3125 -0.4375 0.796875q0 0.421875 0.484375 0.640625q0.484375 0.21875 2.234375 0.609375q2.71875 0.609375 2.71875 2.734375q0 1.296875 -1.03125 2.046875q-1.015625 0.75 -2.71875 0.75zm9.883911 0q-2.078125 0 -3.40625 -1.3125q-1.3125 -1.328125 -1.3125 -3.421875q0 -2.03125 1.3125 -3.375q1.3125 -1.34375 3.265625 -1.34375q2.015625 0 3.21875 1.390625q1.21875 1.390625 1.21875 3.515625l0 0.46875l-6.953125 0q0.125 1.109375 0.890625 1.796875q0.78125 0.6875 1.984375 0.6875q0.640625 0 1.34375 -0.25q0.71875 -0.265625 1.203125 -0.75l0.890625 1.296875q-1.328125 1.296875 -3.65625 1.296875zm2.390625 -5.46875q-0.046875 -1.0625 -0.75 -1.71875q-0.703125 -0.65625 -1.78125 -0.65625q-1.0625 0 -1.75 0.65625q-0.671875 0.65625 -0.78125 1.71875l5.0625 0z" fill-rule="nonzero"/><path fill="#000000" fill-opacity="0.0" d="m225.42929 93.56494l131.87402 0" fill-rule="evenodd"/><path stroke="#000000" stroke-width="1.0" stroke-linejoin="round" stroke-linecap="butt" d="m231.42928 93.56494l119.87404 0" fill-rule="evenodd"/><path fill="#000000" stroke="#000000" stroke-width="1.0" stroke-linecap="butt" d="m231.42928 91.91321l-4.538101 1.6517334l4.538101 1.6517334z" fill-rule="evenodd"/><path fill="#000000" stroke="#000000" stroke-width="1.0" stroke-linecap="butt" d="m351.3033 95.216675l4.538086 -1.6517334l-4.538086 -1.6517334z" fill-rule="evenodd"/><path fill="#000000" fill-opacity="0.0" d="m551.8414 93.56494l35.874023 0" fill-rule="evenodd"/><path stroke="#000000" stroke-width="1.0" stroke-linejoin="round" stroke-linecap="butt" d="m551.8414 93.56494l35.874023 0" fill-rule="evenodd"/><path fill="#000000" fill-opacity="0.0" d="m225.42929 67.35759l131.87402 0l0 44.472443l-131.87402 0z" fill-rule="evenodd"/><path fill="#000000" d="m254.84364 87.877594l0 -6.765625l-2.421875 0l0 -1.234375l6.2500153 0l0 1.234375l-2.4375 0l0 6.765625l-1.3906403 0zm4.428421 1.140625q0.203125 0.09375 0.484375 0.09375q0.609375 0 0.828125 -0.5l0.296875 -0.65625l-2.390625 -5.875l1.34375 0l1.703125 4.34375l1.6875 -4.34375l1.359375 0l-2.796875 6.84375q-0.296875 0.734375 -0.8125 1.015625q-0.5 0.28125 -1.1875 0.296875q-0.390625 0 -0.703125 -0.09375l0.1875 -1.125zm9.223541 -1.0q-1.15625 0 -1.859375 -0.9375l0 3.0l-1.265625 0l0 -8.0l1.265625 0l0 0.796875q0.6875 -0.9375 1.859375 -0.9375q1.15625 0 1.859375 0.828125q0.703125 0.828125 0.703125 2.203125q0 1.390625 -0.703125 2.21875q-0.703125 0.828125 -1.859375 0.828125zm-0.375 -1.109375q0.75 0 1.1875 -0.53125q0.453125 -0.546875 0.453125 -1.40625q0 -0.875 -0.46875 -1.390625q-0.46875 -0.53125 -1.171875 -0.53125q-0.4375 0 -0.84375 0.21875q-0.40625 0.21875 -0.640625 0.5625l0 2.296875q0.234375 0.328125 0.640625 0.5625q0.40625 0.21875 0.84375 0.21875zm6.8579407 1.109375q-1.34375 0 -2.1875 -0.84375q-0.84375 -0.859375 -0.84375 -2.203125q0 -1.3125 0.84375 -2.171875q0.84375 -0.859375 2.09375 -0.859375q1.296875 0 2.078125 0.890625q0.78125 0.890625 0.78125 2.265625l0 0.296875l-4.46875 0q0.078125 0.71875 0.578125 1.15625q0.5 0.4375 1.265625 0.4375q0.421875 0 0.875 -0.15625q0.453125 -0.171875 0.765625 -0.484375l0.578125 0.828125q-0.859375 0.84375 -2.359375 0.84375zm1.546875 -3.515625q-0.046875 -0.6875 -0.5 -1.109375q-0.4375 -0.421875 -1.140625 -0.421875q-0.671875 0 -1.109375 0.421875q-0.4375 0.421875 -0.515625 1.109375l3.265625 0zm5.2465515 3.515625q-2.0625 0 -3.25 -1.265625l0.765625 -1.078125q1.046875 1.09375 2.53125 1.09375q0.75 0 1.171875 -0.296875q0.4375 -0.3125 0.4375 -0.796875q0 -0.390625 -0.359375 -0.65625q-0.359375 -0.265625 -1.109375 -0.4375q-1.53125 -0.359375 -2.078125 -0.65625q-0.546875 -0.3125 -0.828125 -0.75q-0.28125 -0.453125 -0.28125 -1.078125q0 -1.015625 0.8125 -1.671875q0.8125 -0.671875 2.09375 -0.671875q1.84375 0 3.0 1.109375l-0.796875 1.046875q-0.921875 -0.90625 -2.3125 -0.90625q-0.625 0 -1.0 0.265625q-0.359375 0.265625 -0.359375 0.734375q0 0.390625 0.453125 0.625q0.453125 0.234375 1.875 0.578125q1.140625 0.296875 1.734375 0.875q0.59375 0.5625 0.59375 1.46875q0 1.125 -0.828125 1.796875q-0.8125 0.671875 -2.265625 0.671875zm6.9874268 0q-1.3125 0 -2.15625 -0.859375q-0.84375 -0.875 -0.84375 -2.1875q0 -1.3125 0.84375 -2.171875q0.84375 -0.859375 2.15625 -0.859375q1.453125 0 2.21875 1.03125l-0.828125 0.765625q-0.484375 -0.6875 -1.328125 -0.6875q-0.78125 0 -1.265625 0.546875q-0.484375 0.53125 -0.484375 1.375q0 0.84375 0.46875 1.390625q0.484375 0.546875 1.28125 0.546875q0.828125 0 1.328125 -0.6875l0.828125 0.765625q-0.765625 1.03125 -2.21875 1.03125zm3.3233948 -0.140625l0 -5.796875l1.265625 0l0 0.859375q0.328125 -0.421875 0.8125 -0.703125q0.5 -0.28125 1.0625 -0.28125l0 1.234375l-0.390625 -0.03125q-0.40625 0 -0.859375 0.234375q-0.4375 0.21875 -0.625 0.53125l0 3.953125l-1.265625 0zm4.789032 -6.5q-0.3125 0 -0.546875 -0.21875q-0.234375 -0.234375 -0.234375 -0.5625q0 -0.328125 0.234375 -0.546875q0.234375 -0.234375 0.546875 -0.234375q0.328125 0 0.546875 0.234375q0.234375 0.21875 0.234375 0.546875q0 0.328125 -0.234375 0.5625q-0.21875 0.21875 -0.546875 0.21875zm-0.625 6.5l0 -5.796875l1.265625 0l0 5.796875l-1.265625 0zm6.017029 0.140625q-1.15625 0 -1.859375 -0.9375l0 3.0l-1.265625 0l0 -8.0l1.265625 0l0 0.796875q0.6875 -0.9375 1.859375 -0.9375q1.15625 0 1.859375 0.828125q0.703125 0.828125 0.703125 2.203125q0 1.390625 -0.703125 2.21875q-0.703125 0.828125 -1.859375 0.828125zm-0.375 -1.109375q0.75 0 1.1875 -0.53125q0.453125 -0.546875 0.453125 -1.40625q0 -0.875 -0.46875 -1.390625q-0.46875 -0.53125 -1.171875 -0.53125q-0.4375 0 -0.84375 0.21875q-0.40625 0.21875 -0.640625 0.5625l0 2.296875q0.234375 0.328125 0.640625 0.5625q0.40625 0.21875 0.84375 0.21875zm5.936035 1.109375q-0.734375 0 -1.125 -0.375q-0.375 -0.390625 -0.375 -1.109375l0 -3.34375l-0.953125 0l0 -1.109375l0.953125 0l0 -1.578125l1.265625 0l0 1.578125l1.171875 0l0 1.109375l-1.171875 0l0 3.03125q0 0.296875 0.140625 0.5q0.140625 0.1875 0.40625 0.1875q0.390625 0 0.5625 -0.203125l0.3125 0.9375q-0.375 0.375 -1.1875 0.375zm10.802673 -0.140625l-0.578125 -1.53125l-3.671875 0l-0.59375 1.53125l-1.59375 0l3.140625 -8.0l1.75 0l3.140625 8.0l-1.59375 0zm-2.421875 -6.59375l-1.4375 3.828125l2.875 0l-1.4375 -3.828125zm4.904175 6.59375l0 -8.0l3.515625 0q1.171875 0 1.890625 0.703125q0.71875 0.703125 0.71875 1.796875q0 1.109375 -0.734375 1.8125q-0.734375 0.703125 -1.875 0.703125l-2.125 0l0 2.984375l-1.390625 0zm3.3125 -4.21875q0.609375 0 0.984375 -0.34375q0.390625 -0.359375 0.390625 -0.9375q0 -0.578125 -0.390625 -0.921875q-0.375 -0.34375 -0.984375 -0.34375l-1.921875 0l0 2.546875l1.921875 0zm3.983551 4.21875l0 -8.0l1.390625 0l0 8.0l-1.390625 0z" fill-rule="nonzero"/><path fill="#666666" d="m30.878103 230.66344l0 0c0 -7.6733093 6.2204533 -13.893768 13.893774 -13.893768l166.76363 0c3.6848602 0 7.218796 1.4638062 9.824387 4.069397c2.6055908 2.6055756 4.069397 6.139511 4.069397 9.824371l0 82.070724c0 7.6733093 -6.220459 13.893768 -13.893784 13.893768l-166.76363 0c-7.673321 0 -13.893774 -6.220459 -13.893774 -13.893768z" fill-rule="evenodd"/><path fill="#ffffff" d="m71.843285 267.6188l-0.90625 -2.390625l-5.703125 0l-0.921875 2.390625l-2.4843712 0l4.890621 -12.4375l2.71875 0l4.890625 12.4375l-2.484375 0zm-3.765625 -10.25l-2.234375 5.9375l4.46875 0l-2.234375 -5.9375zm7.618164 10.25l0 -12.4375l5.46875 0q1.828125 0 2.9375 1.09375q1.125 1.09375 1.125 2.796875q0 1.71875 -1.15625 2.8125q-1.140625 1.09375 -2.90625 1.09375l-3.296875 0l0 4.640625l-2.171875 0zm5.171875 -6.5625q0.921875 0 1.515625 -0.546875q0.609375 -0.546875 0.609375 -1.4375q0 -0.890625 -0.609375 -1.421875q-0.59375 -0.546875 -1.515625 -0.546875l-3.0 0l0 3.953125l3.0 0zm6.1711273 6.5625l0 -12.4375l2.171875 0l0 12.4375l-2.171875 0zm15.595383 0.21875q-2.84375 0 -4.6875 -1.828125q-1.84375 -1.828125 -1.84375 -4.609375q0 -2.796875 1.828125 -4.609375q1.84375 -1.828125 4.703125 -1.828125q3.21875 0 5.0 2.8125l-1.875 0.9375q-0.4375 -0.78125 -1.28125 -1.28125q-0.84375 -0.515625 -1.84375 -0.515625q-1.875 0 -3.09375 1.28125q-1.203125 1.265625 -1.203125 3.203125q0 1.953125 1.203125 3.234375q1.203125 1.265625 3.09375 1.265625q1.0 0 1.84375 -0.515625q0.84375 -0.515625 1.28125 -1.296875l1.875 0.953125q-1.78125 2.796875 -5.0 2.796875zm10.754822 0q-2.0 0 -3.3125 -1.3125q-1.3125 -1.328125 -1.3125 -3.421875q0 -2.0625 1.296875 -3.390625q1.296875 -1.328125 3.328125 -1.328125q2.046875 0 3.34375 1.328125q1.3125 1.328125 1.3125 3.390625q0 2.09375 -1.3125 3.421875q-1.296875 1.3125 -3.34375 1.3125zm0 -1.734375q1.171875 0 1.890625 -0.828125q0.734375 -0.84375 0.734375 -2.171875q0 -1.328125 -0.734375 -2.15625q-0.71875 -0.828125 -1.890625 -0.828125q-1.125 0 -1.859375 0.828125q-0.71875 0.8125 -0.71875 2.15625q0 1.34375 0.703125 2.171875q0.71875 0.828125 1.875 0.828125zm12.705658 1.515625l0 -5.640625q0 -1.859375 -1.796875 -1.859375q-0.765625 0 -1.375 0.375q-0.609375 0.375 -0.9375 0.84375l0 6.28125l-1.96875 0l0 -9.015625l1.96875 0l0 1.234375q0.546875 -0.65625 1.390625 -1.046875q0.859375 -0.40625 1.78125 -0.40625q2.9062576 0 2.9062576 2.890625l0 6.34375l-1.9687576 0zm7.578102 0.21875q-2.421875 0 -3.859375 -1.390625l0.890625 -1.421875q0.609375 0.59375 1.453125 0.9375q0.84375 0.328125 1.609375 0.328125q0.890625 0 1.328125 -0.328125q0.453125 -0.34375 0.453125 -0.875q0 -0.484375 -0.546875 -0.75q-0.546875 -0.265625 -2.1875 -0.59375q-2.71875 -0.578125 -2.71875 -2.625q0 -1.203125 0.96875 -1.96875q0.984375 -0.765625 2.578125 -0.765625q2.0625 0 3.5 1.265625l-0.8125 1.390625q-0.421875 -0.46875 -1.125 -0.78125q-0.703125 -0.3125 -1.546875 -0.3125q-0.78125 0 -1.234375 0.3125q-0.4375 0.3125 -0.4375 0.796875q0 0.421875 0.484375 0.640625q0.484375 0.21875 2.234375 0.609375q2.71875 0.609375 2.71875 2.734375q0 1.296875 -1.03125 2.046875q-1.015625 0.75 -2.71875 0.75zm11.805756 -0.21875l0 -1.1875q-0.484375 0.53125 -1.3125 0.96875q-0.8125 0.4375 -1.875 0.4375q-2.890625 0 -2.890625 -2.84375l0 -6.390625l1.96875 0l0 5.671875q0 1.828125 1.796875 1.828125q0.75 0 1.359375 -0.34375q0.609375 -0.359375 0.953125 -0.828125l0 -6.328125l1.96875 0l0 9.015625l-1.96875 0zm15.5468445 0l0 -5.875q0 -1.625 -1.46875 -1.625q-0.65625 0 -1.234375 0.390625q-0.5625 0.375 -0.859375 0.796875l0 6.3125l-1.953125 0l0 -5.875q0 -1.625 -1.5 -1.625q-0.65625 0 -1.203125 0.390625q-0.546875 0.375 -0.859375 0.828125l0 6.28125l-1.96875 0l0 -9.015625l1.96875 0l0 1.234375q0.328125 -0.515625 1.1875 -0.984375q0.859375 -0.46875 1.734375 -0.46875q1.0 0 1.609375 0.453125q0.625 0.453125 0.859375 1.203125q0.421875 -0.671875 1.28125 -1.15625q0.859375 -0.5 1.765625 -0.5q2.59375 0 2.59375 2.71875l0 6.515625l-1.953125 0zm8.650024 0.21875q-2.078125 0 -3.40625 -1.3125q-1.3125 -1.328125 -1.3125 -3.421875q0 -2.03125 1.3125 -3.375q1.3125 -1.34375 3.265625 -1.34375q2.015625 0 3.21875 1.390625q1.21875 1.390625 1.21875 3.515625l0 0.46875l-6.953125 0q0.125 1.109375 0.890625 1.796875q0.78125 0.6875 1.984375 0.6875q0.640625 0 1.34375 -0.25q0.71875 -0.265625 1.203125 -0.75l0.890625 1.296875q-1.328125 1.296875 -3.65625 1.296875zm2.390625 -5.46875q-0.046875 -1.0625 -0.75 -1.71875q-0.703125 -0.65625 -1.78125 -0.65625q-1.0625 0 -1.75 0.65625q-0.671875 0.65625 -0.78125 1.71875l5.0625 0zm3.8446655 5.25l0 -9.015625l1.96875 0l0 1.328125q0.5 -0.65625 1.265625 -1.09375q0.765625 -0.4375 1.65625 -0.4375l0 1.9375l-0.609375 -0.046875q-0.640625 0 -1.328125 0.359375q-0.6875 0.34375 -0.984375 0.828125l0 6.140625l-1.96875 0zm9.551849 0.21875q-2.421875 0 -3.859375 -1.390625l0.890625 -1.421875q0.609375 0.59375 1.453125 0.9375q0.84375 0.328125 1.609375 0.328125q0.890625 0 1.328125 -0.328125q0.453125 -0.34375 0.453125 -0.875q0 -0.484375 -0.546875 -0.75q-0.546875 -0.265625 -2.1875 -0.59375q-2.71875 -0.578125 -2.71875 -2.625q0 -1.203125 0.96875 -1.96875q0.984375 -0.765625 2.578125 -0.765625q2.0625 0 3.5 1.265625l-0.8125 1.390625q-0.421875 -0.46875 -1.125 -0.78125q-0.703125 -0.3125 -1.546875 -0.3125q-0.78125 0 -1.234375 0.3125q-0.4375 0.3125 -0.4375 0.796875q0 0.421875 0.484375 0.640625q0.484375 0.21875 2.234375 0.609375q2.71875 0.609375 2.71875 2.734375q0 1.296875 -1.03125 2.046875q-1.015625 0.75 -2.71875 0.75zm8.149506 -0.921875q0 0.96875 -0.484375 1.796875q-0.484375 0.84375 -1.265625 1.390625l-0.875 -0.734375q0.46875 -0.28125 0.859375 -0.796875q0.390625 -0.5 0.484375 -0.953125l-0.3125 0.0625q-0.484375 0 -0.8125 -0.328125q-0.3125 -0.328125 -0.3125 -0.859375q0 -0.53125 0.375 -0.90625q0.375 -0.375 0.890625 -0.375q0.578125 0 1.015625 0.4375q0.4375 0.4375 0.4375 1.265625z" fill-rule="nonzero"/><path fill="#ffffff" d="m61.832798 289.6188l-2.09375 -6.609375l-2.09375 6.609375l-2.046875 0l-2.796875 -9.015625l2.03125 0l1.90625 6.546875l2.140625 -6.546875l1.71875 0l2.140625 6.546875l1.9062462 -6.546875l2.03125 0l-2.7968712 9.015625l-2.046875 0zm10.363689 0.21875q-2.078125 0 -3.40625 -1.3125q-1.3125 -1.328125 -1.3125 -3.421875q0 -2.03125 1.3125 -3.375q1.3125 -1.34375 3.265625 -1.34375q2.015625 0 3.21875 1.390625q1.21875 1.390625 1.21875 3.515625l0 0.46875l-6.953125 0q0.125 1.109375 0.890625 1.796875q0.78125 0.6875 1.984375 0.6875q0.640625 0 1.34375 -0.25q0.71875 -0.265625 1.203125 -0.75l0.890625 1.296875q-1.328125 1.296875 -3.65625 1.296875zm2.390625 -5.46875q-0.046875 -1.0625 -0.75 -1.71875q-0.703125 -0.65625 -1.78125 -0.65625q-1.0625 0 -1.75 0.65625q-0.671875 0.65625 -0.78125 1.71875l5.0625 0zm5.8134155 2.546875q0.3125 0.5 0.953125 0.84375q0.65625 0.34375 1.359375 0.34375q1.109375 0 1.828125 -0.796875q0.71875 -0.796875 0.71875 -2.1875q0 -1.34375 -0.71875 -2.171875q-0.703125 -0.828125 -1.828125 -0.828125q-0.625 0 -1.296875 0.34375q-0.65625 0.34375 -1.015625 0.890625l0 3.5625zm-1.96875 2.703125l0 -12.4375l1.96875 0l0 4.671875q1.109375 -1.46875 2.890625 -1.46875q1.75 0 2.859375 1.296875q1.125 1.296875 1.125 3.4375q0 2.171875 -1.109375 3.453125q-1.09375 1.265625 -2.875 1.265625q-1.765625 0 -2.890625 -1.453125l0 1.234375l-1.96875 0zm16.102692 0l0 -7.296875l-1.484375 0l0 -1.71875l1.484375 0l0 -0.5q0 -1.46875 0.78125 -2.28125q0.78125 -0.828125 2.078125 -0.828125q1.375 0 2.15625 0.78125l-0.765625 1.203125q-0.421875 -0.390625 -1.046875 -0.390625q-1.25 0 -1.25 1.515625l0 0.5l1.828125 0l0 1.71875l-1.828125 0l0 7.296875l-1.953125 0zm5.2773743 0l0 -9.015625l1.96875 0l0 1.328125q0.5 -0.65625 1.265625 -1.09375q0.765625 -0.4375 1.65625 -0.4375l0 1.9375l-0.609375 -0.046875q-0.640625 0 -1.328125 0.359375q-0.6875 0.34375 -0.984375 0.828125l0 6.140625l-1.96875 0zm10.536224 0.21875q-2.0 0 -3.3125 -1.3125q-1.3125 -1.328125 -1.3125 -3.421875q0 -2.0625 1.296875 -3.390625q1.296875 -1.328125 3.328125 -1.328125q2.046875 0 3.34375 1.328125q1.3125 1.328125 1.3125 3.390625q0 2.09375 -1.3125 3.421875q-1.296875 1.3125 -3.34375 1.3125zm0 -1.734375q1.171875 0 1.890625 -0.828125q0.734375 -0.84375 0.734375 -2.171875q0 -1.328125 -0.734375 -2.15625q-0.71875 -0.828125 -1.890625 -0.828125q-1.125 0 -1.859375 0.828125q-0.71875 0.8125 -0.71875 2.15625q0 1.34375 0.703125 2.171875q0.71875 0.828125 1.875 0.828125zm12.705658 1.515625l0 -5.640625q0 -1.859375 -1.796875 -1.859375q-0.765625 0 -1.375 0.375q-0.609375 0.375 -0.9375 0.84375l0 6.28125l-1.96875 0l0 -9.015625l1.96875 0l0 1.234375q0.546875 -0.65625 1.390625 -1.046875q0.859375 -0.40625 1.78125 -0.40625q2.90625 0 2.90625 2.890625l0 6.34375l-1.96875 0zm7.2030945 0.21875q-1.140625 0 -1.734375 -0.59375q-0.578125 -0.59375 -0.578125 -1.71875l0 -5.203125l-1.484375 0l0 -1.71875l1.484375 0l0 -2.453125l1.96875 0l0 2.453125l1.828125 0l0 1.71875l-1.828125 0l0 4.71875q0 0.46875 0.203125 0.765625q0.21875 0.296875 0.65625 0.296875q0.59375 0 0.875 -0.3125l0.46875 1.46875q-0.578125 0.578125 -1.859375 0.578125zm7.4044647 0q-2.078125 0 -3.40625 -1.3125q-1.3125 -1.328125 -1.3125 -3.421875q0 -2.03125 1.3125 -3.375q1.3125 -1.34375 3.265625 -1.34375q2.015625 0 3.21875 1.390625q1.21875 1.390625 1.21875 3.515625l0 0.46875l-6.953125 0q0.125 1.109375 0.890625 1.796875q0.78125 0.6875 1.984375 0.6875q0.640625 0 1.34375 -0.25q0.71875 -0.265625 1.203125 -0.75l0.890625 1.296875q-1.328125 1.296875 -3.65625 1.296875zm2.390625 -5.46875q-0.046875 -1.0625 -0.75 -1.71875q-0.703125 -0.65625 -1.78125 -0.65625q-1.0625 0 -1.75 0.65625q-0.671875 0.65625 -0.78125 1.71875l5.0625 0zm9.922791 5.25l0 -5.640625q0 -1.859375 -1.796875 -1.859375q-0.765625 0 -1.375 0.375q-0.609375 0.375 -0.9375 0.84375l0 6.28125l-1.96875 0l0 -9.015625l1.96875 0l0 1.234375q0.546875 -0.65625 1.390625 -1.046875q0.859375 -0.40625 1.78125 -0.40625q2.90625 0 2.90625 2.890625l0 6.34375l-1.96875 0zm10.8437195 0l0 -1.234375q-1.140625 1.453125 -2.890625 1.453125q-1.796875 0 -2.90625 -1.265625q-1.109375 -1.265625 -1.109375 -3.453125q0 -2.125 1.109375 -3.421875q1.109375 -1.3125 2.90625 -1.3125q1.78125 0 2.890625 1.46875l0 -4.671875l1.96875 0l0 12.4375l-1.96875 0zm-2.328125 -1.515625q0.703125 0 1.34375 -0.34375q0.65625 -0.34375 0.984375 -0.84375l0 -3.578125q-0.328125 -0.515625 -0.984375 -0.859375q-0.640625 -0.359375 -1.34375 -0.359375q-1.171875 0 -1.859375 0.84375q-0.671875 0.828125 -0.671875 2.15625q0 1.359375 0.703125 2.171875q0.71875 0.8125 1.828125 0.8125zm9.245529 0.8125q0 0.96875 -0.484375 1.796875q-0.484375 0.84375 -1.265625 1.390625l-0.875 -0.734375q0.46875 -0.28125 0.859375 -0.796875q0.390625 -0.5 0.484375 -0.953125l-0.3125 0.0625q-0.484375 0 -0.8125 -0.328125q-0.3125 -0.328125 -0.3125 -0.859375q0 -0.53125 0.375 -0.90625q0.375 -0.375 0.890625 -0.375q0.578125 0 1.015625 0.4375q0.4375 0.4375 0.4375 1.265625zm11.099823 0.921875q-2.078125 0 -3.40625 -1.3125q-1.3125 -1.328125 -1.3125 -3.421875q0 -2.03125 1.3125 -3.375q1.3125 -1.34375 3.265625 -1.34375q2.015625 0 3.21875 1.390625q1.21875 1.390625 1.21875 3.515625l0 0.46875l-6.953125 0q0.125 1.109375 0.890625 1.796875q0.78125 0.6875 1.984375 0.6875q0.640625 0 1.34375 -0.25q0.71875 -0.265625 1.203125 -0.75l0.890625 1.296875q-1.328125 1.296875 -3.65625 1.296875zm2.390625 -5.46875q-0.046875 -1.0625 -0.75 -1.71875q-0.703125 -0.65625 -1.78125 -0.65625q-1.0625 0 -1.75 0.65625q-0.671875 0.65625 -0.78125 1.71875l5.0625 0zm6.5477905 5.46875q-1.140625 0 -1.734375 -0.59375q-0.578125 -0.59375 -0.578125 -1.71875l0 -5.203125l-1.484375 0l0 -1.71875l1.484375 0l0 -2.453125l1.96875 0l0 2.453125l1.828125 0l0 1.71875l-1.828125 0l0 4.71875q0 0.46875 0.203125 0.765625q0.21875 0.296875 0.65625 0.296875q0.59375 0 0.875 -0.3125l0.46875 1.46875q-0.578125 0.578125 -1.859375 0.578125zm7.3575897 0q-2.046875 0 -3.359375 -1.34375q-1.3125 -1.359375 -1.3125 -3.390625q0 -2.03125 1.3125 -3.375q1.3125 -1.34375 3.359375 -1.34375q2.25 0 3.453125 1.609375l-1.296875 1.1875q-0.765625 -1.0625 -2.0625 -1.0625q-1.21875 0 -1.96875 0.828125q-0.75 0.828125 -0.75 2.15625q0 1.3125 0.734375 2.15625q0.75 0.84375 1.984375 0.84375q1.28125 0 2.0625 -1.0625l1.296875 1.203125q-1.203125 1.59375 -3.453125 1.59375zm6.178406 -0.015625q-0.546875 0 -0.9375 -0.375q-0.375 -0.390625 -0.375 -0.921875q0 -0.546875 0.375 -0.921875q0.390625 -0.390625 0.9375 -0.390625q0.53125 0 0.90625 0.390625q0.390625 0.375 0.390625 0.921875q0 0.53125 -0.390625 0.921875q-0.375 0.375 -0.90625 0.375z" fill-rule="nonzero"/><path fill="#000000" fill-opacity="0.0" d="m128.15369 148.49408l0 68.28346" fill-rule="evenodd"/><path stroke="#000000" stroke-width="1.0" stroke-linejoin="round" stroke-linecap="butt" stroke-dasharray="4.0,3.0" d="m128.1537 154.49408l0 56.283463" fill-rule="evenodd"/><path fill="#000000" stroke="#000000" stroke-width="1.0" stroke-linecap="butt" d="m129.80544 154.49408l-1.6517334 -4.538101l-1.6517334 4.538101z" fill-rule="evenodd"/><path fill="#000000" stroke="#000000" stroke-width="1.0" stroke-linecap="butt" d="m126.50197 210.77754l1.6517334 4.538101l1.6517334 -4.538101z" fill-rule="evenodd"/></g></svg>